HIERARCHY
ROOT hip
{
  OFFSET 0 0 0
  CHANNELS 6 Xposition Yposition Zposition Zrotation Yrotation Xrotation
  JOINT abdomen
  {
    OFFSET 0 20.6881 -0.73152
    CHANNELS 3 Zrotation Xrotation Yrotation
    JOINT chest
    {
      OFFSET 0 11.7043 -0.48768
      CHANNELS 3 Zrotation Xrotation Yrotation
      JOINT neck
      {
        OFFSET 0 22.1894 -2.19456
        CHANNELS 3 Zrotation Xrotation Yrotation
        JOINT head
        {
          OFFSET -0.24384 7.07133 1.2192
          CHANNELS 3 Zrotation Xrotation Yrotation
          JOINT leftEye
          {
            OFFSET 4.14528 8.04674 8.04672
            CHANNELS 3 Zrotation Xrotation Yrotation
            End Site
            {
              OFFSET 1 0 0
            }
          }
          JOINT rightEye
          {
            OFFSET -3.6576 8.04674 8.04672
            CHANNELS 3 Zrotation Xrotation Yrotation
            End Site
            {
              OFFSET 1 0 0
            }
          }
        }
      }
      JOINT rCollar
      {
        OFFSET -2.68224 19.2634 -4.8768
        CHANNELS 3 Zrotation Xrotation Yrotation
        JOINT rShldr
        {
          OFFSET -8.77824 -1.95073 1.46304
          CHANNELS 3 Zrotation Xrotation Yrotation
          JOINT rForeArm
          {
            OFFSET -28.1742 -1.7115 0.48768
            CHANNELS 3 Zrotation Xrotation Yrotation
            JOINT rHand
            {
              OFFSET -22.5879 0.773209 7.07136
              CHANNELS 3 Zrotation Xrotation Yrotation
              JOINT rThumb1
              {
                OFFSET -1.2192 -0.487915 3.41376
                CHANNELS 3 Zrotation Xrotation Yrotation
                JOINT rThumb2
                {
                  OFFSET -3.37035 -0.52449 3.41376
                  CHANNELS 3 Zrotation Xrotation Yrotation
                  End Site
                  {
                    OFFSET -1.78271 -1.18214 1.43049
                  }
                }
              }
              JOINT rIndex1
              {
                OFFSET -7.75947 0.938293 5.60832
                CHANNELS 3 Zrotation Xrotation Yrotation
                JOINT rIndex2
                {
                  OFFSET -2.54057 -0.884171 1.56538
                  CHANNELS 3 Zrotation Xrotation Yrotation
                  End Site
                  {
                    OFFSET -1.62519 -0.234802 1.16502
                  }
                }
              }
              JOINT rMid1
              {
                OFFSET -8.24714 1.18213 3.41376
                CHANNELS 3 Zrotation Xrotation Yrotation
                JOINT rMid2
                {
                  OFFSET -3.10165 -0.590103 1.0647
                  CHANNELS 3 Zrotation Xrotation Yrotation
                  End Site
                  {
                    OFFSET -2.48547 -0.328903 0.83742
                  }
                }
              }
              JOINT rRing1
              {
                OFFSET -8.82822 0.546677 1.51678
                CHANNELS 3 Zrotation Xrotation Yrotation
                JOINT rRing2
                {
                  OFFSET -2.60934 -0.819778 -0.0198488
                  CHANNELS 3 Zrotation Xrotation Yrotation
                  End Site
                  {
                    OFFSET -2.33842 -0.294052 0.168128
                  }
                }
              }
              JOINT rPinky1
              {
                OFFSET -8.27202 -0.0477905 -0.4584
                CHANNELS 3 Zrotation Xrotation Yrotation
                JOINT rPinky2
                {
                  OFFSET -1.82734 -0.647385 -0.700984
                  CHANNELS 3 Zrotation Xrotation Yrotation
                  End Site
                  {
                    OFFSET -1.69225 -0.51767 -0.607171
                  }
                }
              }
            }
          }
        }
      }
      JOINT lCollar
      {
        OFFSET 2.68224 19.2634 -4.8768
        CHANNELS 3 Zrotation Xrotation Yrotation
        JOINT lShldr
        {
          OFFSET 8.77824 -1.95073 1.46304
          CHANNELS 3 Zrotation Xrotation Yrotation
          JOINT lForeArm
          {
            OFFSET 28.1742 -1.7115 0.48768
            CHANNELS 3 Zrotation Xrotation Yrotation
            JOINT lHand
            {
              OFFSET 22.5879 0.773209 7.07136
              CHANNELS 3 Zrotation Xrotation Yrotation
              JOINT lThumb1
              {
                OFFSET 1.2192 -0.487915 3.41376
                CHANNELS 3 Zrotation Xrotation Yrotation
                JOINT lThumb2
                {
                  OFFSET 3.37035 -0.52449 3.41376
                  CHANNELS 3 Zrotation Xrotation Yrotation
                  End Site
                  {
                    OFFSET 1.78271 -1.18214 1.43049
                  }
                }
              }
              JOINT lIndex1
              {
                OFFSET 7.75947 0.938293 5.60832
                CHANNELS 3 Zrotation Xrotation Yrotation
                JOINT lIndex2
                {
                  OFFSET 2.54057 -0.884171 1.56538
                  CHANNELS 3 Zrotation Xrotation Yrotation
                  End Site
                  {
                    OFFSET 1.62519 -0.234802 1.16502
                  }
                }
              }
              JOINT lMid1
              {
                OFFSET 8.24714 1.18213 3.41376
                CHANNELS 3 Zrotation Xrotation Yrotation
                JOINT lMid2
                {
                  OFFSET 3.10165 -0.590103 1.0647
                  CHANNELS 3 Zrotation Xrotation Yrotation
                  End Site
                  {
                    OFFSET 2.48547 -0.328903 0.83742
                  }
                }
              }
              JOINT lRing1
              {
                OFFSET 8.82822 0.546677 1.51678
                CHANNELS 3 Zrotation Xrotation Yrotation
                JOINT lRing2
                {
                  OFFSET 2.60934 -0.819778 -0.0198488
                  CHANNELS 3 Zrotation Xrotation Yrotation
                  End Site
                  {
                    OFFSET 2.33842 -0.294052 0.168128
                  }
                }
              }
              JOINT lPinky1
              {
                OFFSET 8.27202 -0.0477905 -0.4584
                CHANNELS 3 Zrotation Xrotation Yrotation
                JOINT lPinky2
                {
                  OFFSET 1.82734 -0.647385 -0.700984
                  CHANNELS 3 Zrotation Xrotation Yrotation
                  End Site
                  {
                    OFFSET 1.69225 -0.51767 -0.607171
                  }
                }
              }
            }
          }
        }
      }
    }
  }
  JOINT rButtock
  {
    OFFSET -8.77824 4.35084 1.2192
    CHANNELS 3 Zrotation Xrotation Yrotation
    JOINT rThigh
    {
      OFFSET 0 -1.70687 -2.19456
      CHANNELS 3 Zrotation Xrotation Yrotation
      JOINT rShin
      {
        OFFSET 0 -36.8199 0.73152
        CHANNELS 3 Zrotation Xrotation Yrotation
        JOINT rFoot
        {
          OFFSET 0.73152 -45.1104 -5.12064
          CHANNELS 3 Zrotation Xrotation Yrotation
          End Site
          {
            OFFSET -1.1221 -3.69964 12.103
          }
        }
      }
    }
  }
  JOINT lButtock
  {
    OFFSET 8.77824 4.35084 1.2192
    CHANNELS 3 Zrotation Xrotation Yrotation
    JOINT lThigh
    {
      OFFSET 0 -1.70687 -2.19456
      CHANNELS 3 Zrotation Xrotation Yrotation
      JOINT lShin
      {
        OFFSET 0 -36.8199 0.73152
        CHANNELS 3 Zrotation Xrotation Yrotation
        JOINT lFoot
        {
          OFFSET -0.73152 -45.1104 -5.12064
          CHANNELS 3 Zrotation Xrotation Yrotation
          End Site
          {
            OFFSET 1.1221 -3.69964 12.103
          }
        }
      }
    }
  }
}
MOTION
Frames:	7
Frame Time:	0.00833333
65.4306 73.492 39.3453 -140.617 -60.522 146.898 10.9426 26.496 -2.9999 4.70738 -4.13192 -0.462217 -14.7116 16.1013 -15.7903 22.0163 -14.2254 -28.2953 -0.0 0.0 0.0 -0.0 0.0 0.0 -8.23073e-13 2.56909e-12 -1.49387e-13 68.7533 -53.9701 40.317 -11.5279 -5.12302 20.6998 -1.73989 -34.6485 -5.57384 6.21523e-09 -1.91315e-08 5.96341e-10 1.06855e-08 -3.22234e-08 1.20735e-09 6.21524e-09 -1.91315e-08 5.96325e-10 7.73091 5.47488 0.417314 6.21523e-09 -1.91315e-08 5.96338e-10 2.90554 0.965183 0.102902 6.21524e-09 -1.91315e-08 5.9634e-10 10.2786 0.731801 0.0259123 6.21523e-09 -1.91315e-08 5.96348e-10 2.22167 -0.733487 -0.20892 -8.22968e-13 2.56909e-12 -1.49585e-13 -69.6018 36.94 -9.85613 23.7551 -18.6468 -48.8441 0.0120176 3.12833 -0.440099 2.87549e-09 -4.6722e-09 6.39996e-09 4.97437e-09 -8.07038e-09 1.10614e-08 2.87549e-09 -4.6722e-09 6.39998e-09 -7.73091 5.47488 -0.417314 2.87549e-09 -4.6722e-09 6.39996e-09 -2.90554 0.965183 -0.102902 2.87549e-09 -4.6722e-09 6.39996e-09 -10.2786 0.731801 -0.0259123 2.8755e-09 -4.6722e-09 6.39995e-09 -2.22167 -0.733487 0.20892 -2.03217e-16 0.0 -3.88251e-19 -3.30689 -30.6802 -14.4428 -0.501387 48.0735 1.02337 -1.77115 -8.98734 -5.87045 2.03217e-16 0.0 3.88251e-19 26.8402 -46.3351 23.9675 6.83391 82.2814 -7.34097 -0.75287 -7.99034 -3.66647
65.1246 73.409 40.0492 -143.652 -60.4447 149.167 10.5506 26.8343 -2.84721 4.67949 -4.12247 -0.447834 -14.7184 15.7357 -15.5584 21.7461 -13.8233 -27.886 -0.0 0.0 0.0 -0.0 0.0 0.0 -8.30735e-13 2.59244e-12 -2.56005e-14 69.3871 -52.4142 41.1667 -11.6453 -5.20313 20.9253 -1.8023 -35.171 -5.68333 7.11174e-09 -2.06205e-08 1.16424e-09 1.22225e-08 -3.46625e-08 2.21201e-09 7.11175e-09 -2.06205e-08 1.16422e-09 7.73091 5.47488 0.417314 7.11174e-09 -2.06205e-08 1.16423e-09 2.90554 0.965183 0.102902 7.11175e-09 -2.06205e-08 1.16423e-09 10.2786 0.731801 0.0259123 7.11174e-09 -2.06205e-08 1.16424e-09 2.22167 -0.733487 -0.20892 -8.30645e-13 2.59244e-12 -2.579e-14 -68.2354 38.5821 -12.3748 23.9483 -18.9996 -49.4526 0.00946968 2.85159 -0.401076 4.00002e-09 -1.4103e-09 4.5752e-09 6.91764e-09 -2.43127e-09 7.90433e-09 4.00002e-09 -1.41029e-09 4.57522e-09 -7.73091 5.47488 -0.417314 4.00002e-09 -1.4103e-09 4.5752e-09 -2.90554 0.965183 -0.102902 4.00002e-09 -1.4103e-09 4.57521e-09 -10.2786 0.731801 -0.0259123 4.00003e-09 -1.4103e-09 4.5752e-09 -2.22167 -0.733487 0.20892 -2.03217e-16 0.0 -3.88251e-19 -3.86369 -30.5164 -14.3084 -0.490161 47.745 1.01425 -1.43127 -8.37206 -4.84488 2.03217e-16 0.0 3.88251e-19 26.7386 -46.5036 23.0309 7.0353 82.4943 -7.57308 -0.620565 -8.4692 -2.936
65.2306 73.0494 40.7806 -144.381 -58.471 149.989 9.8241 27.2131 -2.64764 4.69295 -4.09383 -0.437829 -14.713 15.3142 -15.3106 21.4316 -13.413 -27.4371 -0.0 0.0 0.0 -0.0 0.0 0.0 -6.80681e-13 2.077e-12 1.79391e-13 69.8677 -50.7892 41.9989 -11.769 -5.28824 21.1632 -1.87293 -35.7452 -5.8054 7.41339e-09 -2.09095e-08 1.60048e-09 1.27417e-08 -3.51213e-08 2.97196e-09 7.4134e-09 -2.09095e-08 1.60046e-09 7.73091 5.47488 0.417314 7.41339e-09 -2.09095e-08 1.60047e-09 2.90554 0.965183 0.102902 7.4134e-09 -2.09095e-08 1.60047e-09 10.2786 0.731801 0.0259123 7.41339e-09 -2.09095e-08 1.60048e-09 2.22167 -0.733487 -0.20892 -6.80641e-13 2.077e-12 1.79204e-13 -66.6831 40.2667 -15.156 24.1229 -19.3278 -50.0034 0.00597602 2.35766 -0.331501 4.81897e-09 3.93992e-09 9.07395e-10 8.33181e-09 6.81675e-09 1.56114e-09 4.81896e-09 3.93993e-09 9.07407e-10 -7.73091 5.47488 -0.417314 4.81897e-09 3.93992e-09 9.07395e-10 -2.90554 0.965183 -0.102902 4.81896e-09 3.93992e-09 9.074e-10 -10.2786 0.731801 -0.0259123 4.81897e-09 3.93992e-09 9.07392e-10 -2.22167 -0.733487 0.20892 -2.03217e-16 0.0 -3.88251e-19 -4.80413 -30.3781 -14.0623 -0.48081 47.4728 1.0061 -1.04875 -7.63816 -3.55739 2.03217e-16 0.0 3.88251e-19 26.0013 -46.474 21.7657 6.92497 82.4198 -7.49896 -0.361829 -9.0476 -1.79388
65.2337 72.969 41.3381 -145.252 -56.7966 150.778 9.10535 27.5891 -2.45422 4.7138 -4.07841 -0.428823 -14.7217 14.8491 -15.0407 21.0831 -12.965 -26.9408 -0.0 0.0 0.0 -0.0 0.0 0.0 -4.80726e-13 1.39096e-12 3.92538e-13 70.3917 -49.1966 42.9838 -11.8686 -5.35712 21.3556 -1.93379 -36.2233 -5.90871 7.32216e-09 -2.0193e-08 1.94481e-09 1.25863e-08 -3.3897e-08 3.56192e-09 7.32217e-09 -2.0193e-08 1.94479e-09 7.73091 5.47488 0.417314 7.32216e-09 -2.0193e-08 1.94481e-09 2.90554 0.965183 0.102902 7.32217e-09 -2.0193e-08 1.94481e-09 10.2786 0.731801 0.0259123 7.32216e-09 -2.0193e-08 1.94482e-09 2.22167 -0.733487 -0.20892 -4.80745e-13 1.39095e-12 3.92349e-13 -64.9355 41.8966 -18.1585 24.2799 -19.6295 -50.5049 0.00349559 1.81803 -0.255572 5.29442e-09 9.47451e-09 -3.0125e-09 9.15209e-09 1.63837e-08 -5.21766e-09 5.29442e-09 9.47452e-09 -3.01249e-09 -7.73091 5.47488 -0.417314 5.29443e-09 9.47451e-09 -3.0125e-09 -2.90554 0.965183 -0.102902 5.29442e-09 9.47451e-09 -3.0125e-09 -10.2786 0.731801 -0.0259123 5.29443e-09 9.47451e-09 -3.0125e-09 -2.22167 -0.733487 0.20892 -2.03217e-16 0.0 -3.88251e-19 -5.64858 -30.2743 -13.6037 -0.469687 47.1366 0.996647 -0.704819 -6.84311 -2.31311 2.03217e-16 0.0 3.88251e-19 25.1624 -46.3609 20.3503 6.59152 82.1211 -7.19975 -0.103145 -9.63145 -0.727132
64.6884 73.1472 42.0166 -148.272 -56.5707 152.432 8.73857 27.9188 -2.32091 4.70812 -4.10861 -0.417438 -14.7708 14.3527 -14.7422 20.7093 -12.4491 -26.3904 -0.0 0.0 0.0 -0.0 0.0 0.0 -3.38684e-13 9.02487e-13 5.40794e-13 71.1407 -47.7298 44.2681 -11.9144 -5.38882 21.4444 -1.96446 -36.4578 -5.96002 7.04003e-09 -1.86658e-08 2.23699e-09 1.20994e-08 -3.12866e-08 4.05664e-09 7.04003e-09 -1.86658e-08 2.23697e-09 7.73091 5.47488 0.417314 7.04003e-09 -1.86658e-08 2.23699e-09 2.90554 0.965183 0.102902 7.04003e-09 -1.86658e-08 2.23699e-09 10.2786 0.731801 0.0259123 7.04002e-09 -1.86658e-08 2.237e-09 2.22167 -0.733487 -0.20892 -3.38746e-13 9.02478e-13 5.40595e-13 -63.0148 43.3828 -21.3187 24.4197 -19.9024 -50.9653 0.0024189 1.4042 -0.197387 5.38849e-09 1.32895e-08 -5.59353e-09 9.3137e-09 2.29795e-08 -9.68155e-09 5.38848e-09 1.32896e-08 -5.59352e-09 -7.73091 5.47488 -0.417314 5.38849e-09 1.32895e-08 -5.59353e-09 -2.90554 0.965183 -0.102902 5.38849e-09 1.32895e-08 -5.59352e-09 -10.2786 0.731801 -0.0259123 5.3885e-09 1.32895e-08 -5.59353e-09 -2.22167 -0.733487 0.20892 -2.03217e-16 0.0 -3.88251e-19 -5.91765 -30.2119 -12.8317 -0.453349 46.6159 0.983855 -0.459255 -6.04897 -1.41403 2.03217e-16 0.0 3.88251e-19 24.74 -46.2889 18.9526 6.1483 81.6608 -6.7813 0.00341903 -10.1312 -0.226728
64.8104 73.2314 42.2223 -147.338 -54.373 151.449 8.87814 28.1905 -2.24691 4.67651 -4.20378 -0.394958 -14.8839 13.8157 -14.4027 20.2891 -11.8173 -25.7689 -0.0 0.0 0.0 -0.0 0.0 0.0 -2.60287e-13 6.65631e-13 5.79714e-13 72.1939 -46.4025 45.9494 -11.8806 -5.3654 21.3789 -1.95072 -36.3514 -5.93683 6.3138e-09 -1.56615e-08 2.37278e-09 1.08458e-08 -2.61771e-08 4.26921e-09 6.31381e-09 -1.56615e-08 2.37276e-09 7.73091 5.47488 0.417314 6.31381e-09 -1.56615e-08 2.37278e-09 2.90554 0.965183 0.102902 6.31381e-09 -1.56615e-08 2.37278e-09 10.2786 0.731801 0.0259123 6.3138e-09 -1.56615e-08 2.37279e-09 2.22167 -0.733487 -0.20892 -2.60365e-13 6.6563e-13 5.79493e-13 -60.9858 44.6751 -24.5683 24.553 -20.1676 -51.4115 0.00188018 1.15764 -0.162727 4.7781e-09 1.39108e-08 -6.23494e-09 8.25859e-09 2.40559e-08 -1.07914e-08 4.7781e-09 1.39108e-08 -6.23492e-09 -7.73091 5.47488 -0.417314 4.7781e-09 1.39108e-08 -6.23493e-09 -2.90554 0.965183 -0.102902 4.7781e-09 1.39108e-08 -6.23493e-09 -10.2786 0.731801 -0.0259123 4.77811e-09 1.39108e-08 -6.23494e-09 -2.22167 -0.733487 0.20892 -2.03217e-16 0.0 -3.88251e-19 -5.31361 -30.2087 -11.6007 -0.430409 45.8521 0.967589 -0.319985 -5.26174 -0.996527 2.03217e-16 0.0 3.88251e-19 25.0279 -46.2721 17.6503 5.58754 80.9675 -6.23508 -0.103986 -10.5374 -0.432259
64.8555 73.2081 42.7307 -147.71 -52.4111 151.818 9.32113 28.4273 -2.20916 4.63395 -4.34307 -0.365782 -15.0386 13.235 -14.0305 19.8179 -11.095 -25.0885 -0.0 0.0 0.0 -0.0 0.0 0.0 -1.95705e-13 4.98745e-13 5.56578e-13 73.4196 -45.1418 47.8905 -11.789 -5.30216 21.2017 -1.90581 -36.0022 -5.86098 5.13813e-09 -1.13157e-08 2.36925e-09 8.81806e-09 -1.88075e-08 4.2287e-09 5.13813e-09 -1.13157e-08 2.36924e-09 7.73091 5.47488 0.417314 5.13813e-09 -1.13157e-08 2.36925e-09 2.90554 0.965183 0.102902 5.13813e-09 -1.13157e-08 2.36925e-09 10.2786 0.731801 0.0259123 5.13812e-09 -1.13157e-08 2.36926e-09 2.22167 -0.733487 -0.20892 -1.95789e-13 4.98756e-13 5.56327e-13 -58.827 45.8073 -27.9525 24.678 -20.4214 -51.83 0.00140574 0.988309 -0.13892 3.58779e-09 1.26759e-08 -5.84406e-09 6.20159e-09 2.19246e-08 -1.0116e-08 3.58779e-09 1.26759e-08 -5.84404e-09 -7.73091 5.47488 -0.417314 3.58779e-09 1.26759e-08 -5.84406e-09 -2.90554 0.965183 -0.102902 3.58779e-09 1.26759e-08 -5.84406e-09 -10.2786 0.731801 -0.0259123 3.5878e-09 1.26759e-08 -5.84406e-09 -2.22167 -0.733487 0.20892 -2.03217e-16 0.0 -3.88251e-19 -4.14759 -30.2411 -10.0021 -0.403382 44.9183 0.949341 -0.238121 -4.4549 -0.878243 2.03217e-16 0.0 3.88251e-19 25.6978 -46.2499 16.3431 4.96608 80.0361 -5.62145 -0.355988 -10.8934 -1.0821
